<svg width="103" height="118" viewBox="0 0 103 118" fill="none" xmlns="http://www.w3.org/2000/svg">
<path d="M62.3113 0.324219L102.326 11.0106V60.5996L62.3113 49.9132V0.324219Z" fill="url(#paint0_linear_3208_821)"/>
<path d="M42.304 19.0273L82.3184 29.7137V79.3027L42.304 68.6163V19.0273Z" fill="url(#paint1_linear_3208_821)"/>
<path d="M27.7383 30.4609L67.7528 41.1473V90.7363L27.7383 80.0499V30.4609Z" fill="url(#paint2_linear_3208_821)"/>
<path d="M18.2136 38.5566L58.2281 49.243V98.832L18.2136 88.1456V38.5566Z" fill="url(#paint3_linear_3208_821)"/>
<path d="M12.6809 42.7129L52.6954 53.3993V102.988L12.6809 92.3018V42.7129Z" fill="url(#paint4_linear_3208_821)"/>
<circle cx="30.6882" cy="72.2153" r="11.6157" fill="url(#paint5_linear_3208_821)"/>
<path d="M24.7908 72.7517L29.4371 77.398L37.1213 67.3906" stroke="white" stroke-width="1.89644" stroke-linecap="round" stroke-linejoin="round"/>
<circle cx="8.17896" cy="94.1836" r="7.5" fill="url(#paint6_linear_3208_821)"/>
<circle cx="27.1882" cy="114.01" r="3.5" fill="url(#paint7_linear_3208_821)"/>
<defs>
<linearGradient id="paint0_linear_3208_821" x1="72.7023" y1="60.6263" x2="102.824" y2="59.0432" gradientUnits="userSpaceOnUse">
<stop stop-color="#87FFF1"/>
<stop offset="1" stop-color="#42D2FF"/>
</linearGradient>
<linearGradient id="paint1_linear_3208_821" x1="52.695" y1="79.3294" x2="82.8172" y2="77.7463" gradientUnits="userSpaceOnUse">
<stop stop-color="#87FFF1"/>
<stop offset="1" stop-color="#42D2FF"/>
</linearGradient>
<linearGradient id="paint2_linear_3208_821" x1="50.5203" y1="30.4609" x2="45.1101" y2="90.4988" gradientUnits="userSpaceOnUse">
<stop stop-color="#59E1FB"/>
<stop offset="0.520201" stop-color="#766AFF"/>
<stop offset="1" stop-color="#9718E5"/>
</linearGradient>
<linearGradient id="paint3_linear_3208_821" x1="40.9956" y1="38.5566" x2="35.5855" y2="98.5945" gradientUnits="userSpaceOnUse">
<stop stop-color="#1ACFF6"/>
<stop offset="0.520201" stop-color="#766AFF"/>
<stop offset="1" stop-color="#9718E5"/>
</linearGradient>
<linearGradient id="paint4_linear_3208_821" x1="12.666" y1="56.8469" x2="40.9894" y2="97.1552" gradientUnits="userSpaceOnUse">
<stop stop-color="#150333"/>
<stop offset="1" stop-color="#090B12"/>
</linearGradient>
<linearGradient id="paint5_linear_3208_821" x1="25.1053" y1="83.8414" x2="42.5326" y2="82.4617" gradientUnits="userSpaceOnUse">
<stop stop-color="#87FFF1"/>
<stop offset="1" stop-color="#42D2FF"/>
</linearGradient>
<linearGradient id="paint6_linear_3208_821" x1="4.57418" y1="101.69" x2="15.8266" y2="100.799" gradientUnits="userSpaceOnUse">
<stop stop-color="#87FFF1"/>
<stop offset="1" stop-color="#42D2FF"/>
</linearGradient>
<linearGradient id="paint7_linear_3208_821" x1="25.506" y1="117.513" x2="30.7571" y2="117.097" gradientUnits="userSpaceOnUse">
<stop stop-color="#87FFF1"/>
<stop offset="1" stop-color="#42D2FF"/>
</linearGradient>
</defs>
</svg>
