<svg width="100" height="135" viewBox="0 0 100 135" fill="none" xmlns="http://www.w3.org/2000/svg">
<circle cx="68.9087" cy="11.4609" r="3" fill="url(#paint0_linear_3208_821)"/>
<path d="M49.6321 51.6465L99.1059 98.2328L49.6321 124.741L0.158203 98.2328L49.6321 51.6465Z" fill="url(#paint1_linear_3208_821)"/>
<path d="M99.1056 98.2328L49.6318 51.6465L49.6319 124.741L99.1056 98.2328Z" fill="url(#paint2_linear_3208_821)"/>
<path d="M49.6321 61.6465L99.1059 108.233L49.6321 134.741L0.158203 108.233L9.98506 98.9795L23.0422 86.6844L49.6321 61.6465Z" fill="url(#paint3_linear_3208_821)"/>
<path d="M0.158203 98.2318L49.6321 124.74L49.6321 109.046L9.98506 88.9785L0.158203 98.2318Z" fill="url(#paint4_linear_3208_821)"/>
<path d="M99.1056 98.2328L49.6319 124.741L49.6319 112.047L49.6318 51.6465L89.2548 88.9569L99.1056 98.2328Z" fill="url(#paint5_linear_3208_821)"/>
<path d="M49.6318 124.741L99.1056 98.233L89.2547 88.957L49.6318 109.047L49.6318 124.741Z" fill="url(#paint6_linear_3208_821)"/>
<path d="M60.6165 0.648438H56.3398V39.3411H53.3234V0.648438H27.1704V50.9215H31.4471V4.92933L49.0467 4.92933V43.622L60.6166 43.6219L60.6165 0.648438Z" fill="url(#paint7_linear_3208_821)"/>
<path d="M46.0311 7.94794H34.4628V50.9215H38.7395V12.2288L41.7544 12.2288V43.622H46.0311V7.94794Z" fill="url(#paint8_linear_3208_821)"/>
<path d="M67.9089 0.648438H63.6322V46.6406H41.7559V50.9214L67.9089 50.9215V0.648438Z" fill="url(#paint9_linear_3208_821)"/>
<circle cx="33.1704" cy="64.5215" r="6" fill="url(#paint10_linear_3208_821)"/>
<circle cx="74.5337" cy="41.7031" r="4" fill="url(#paint11_linear_3208_821)"/>
<circle cx="21.3955" cy="34.2031" r="3.5" fill="url(#paint12_linear_3208_821)"/>
<ellipse cx="58.392" cy="76.4333" rx="2.88219" ry="3.1442" fill="url(#paint13_linear_3208_821)"/>
<defs>
<linearGradient id="paint0_linear_3208_821" x1="67.4668" y1="14.4636" x2="71.9677" y2="14.1073" gradientUnits="userSpaceOnUse">
<stop stop-color="#87FFF1"/>
<stop offset="1" stop-color="#42D2FF"/>
</linearGradient>
<linearGradient id="paint1_linear_3208_821" x1="0.121392" y1="68.7864" x2="22.6113" y2="134.052" gradientUnits="userSpaceOnUse">
<stop stop-color="#150333"/>
<stop offset="1" stop-color="#090B12"/>
</linearGradient>
<linearGradient id="paint2_linear_3208_821" x1="49.6134" y1="68.7864" x2="83.7299" y2="118.289" gradientUnits="userSpaceOnUse">
<stop stop-color="#150333"/>
<stop offset="1" stop-color="#090B12"/>
</linearGradient>
<linearGradient id="paint3_linear_3208_821" x1="0.121392" y1="78.7864" x2="22.6113" y2="144.052" gradientUnits="userSpaceOnUse">
<stop stop-color="#150333"/>
<stop offset="1" stop-color="#090B12"/>
</linearGradient>
<linearGradient id="paint4_linear_3208_821" x1="28.3258" y1="88.9785" x2="26.7759" y2="124.821" gradientUnits="userSpaceOnUse">
<stop stop-color="#1ACFF6"/>
<stop offset="0.520201" stop-color="#766AFF"/>
<stop offset="1" stop-color="#9718E5"/>
</linearGradient>
<linearGradient id="paint5_linear_3208_821" x1="49.6134" y1="68.7864" x2="83.7299" y2="118.289" gradientUnits="userSpaceOnUse">
<stop stop-color="#150333"/>
<stop offset="1" stop-color="#090B12"/>
</linearGradient>
<linearGradient id="paint6_linear_3208_821" x1="77.7994" y1="88.957" x2="76.2476" y2="124.822" gradientUnits="userSpaceOnUse">
<stop stop-color="#1ACFF6"/>
<stop offset="0.520201" stop-color="#766AFF"/>
<stop offset="1" stop-color="#9718E5"/>
</linearGradient>
<linearGradient id="paint7_linear_3208_821" x1="50.3646" y1="0.648438" x2="46.6581" y2="50.8564" gradientUnits="userSpaceOnUse">
<stop stop-color="#1ACFF6"/>
<stop offset="0.520201" stop-color="#766AFF"/>
<stop offset="1" stop-color="#9718E5"/>
</linearGradient>
<linearGradient id="paint8_linear_3208_821" x1="50.3646" y1="0.648438" x2="46.6581" y2="50.8564" gradientUnits="userSpaceOnUse">
<stop stop-color="#1ACFF6"/>
<stop offset="0.520201" stop-color="#766AFF"/>
<stop offset="1" stop-color="#9718E5"/>
</linearGradient>
<linearGradient id="paint9_linear_3208_821" x1="50.3646" y1="0.648438" x2="46.6581" y2="50.8564" gradientUnits="userSpaceOnUse">
<stop stop-color="#1ACFF6"/>
<stop offset="0.520201" stop-color="#766AFF"/>
<stop offset="1" stop-color="#9718E5"/>
</linearGradient>
<linearGradient id="paint10_linear_3208_821" x1="30.2866" y1="70.5268" x2="39.2885" y2="69.8142" gradientUnits="userSpaceOnUse">
<stop stop-color="#87FFF1"/>
<stop offset="1" stop-color="#42D2FF"/>
</linearGradient>
<linearGradient id="paint11_linear_3208_821" x1="72.6111" y1="45.7067" x2="78.6124" y2="45.2316" gradientUnits="userSpaceOnUse">
<stop stop-color="#87FFF1"/>
<stop offset="1" stop-color="#42D2FF"/>
</linearGradient>
<linearGradient id="paint12_linear_3208_821" x1="19.7133" y1="37.7062" x2="24.9644" y2="37.2905" gradientUnits="userSpaceOnUse">
<stop stop-color="#87FFF1"/>
<stop offset="1" stop-color="#42D2FF"/>
</linearGradient>
<linearGradient id="paint13_linear_3208_821" x1="57.0067" y1="79.5803" x2="61.3352" y2="79.2661" gradientUnits="userSpaceOnUse">
<stop stop-color="#87FFF1"/>
<stop offset="1" stop-color="#42D2FF"/>
</linearGradient>
</defs>
</svg>
