<svg width="20" height="22" viewBox="0 0 26 28" fill="none" xmlns="http://www.w3.org/2000/svg">
<path d="M18.1732 24.5V26.6875C18.1732 27.4124 17.5736 28 16.8339 28H1.65533C0.915649 28 0.31604 27.4124 0.31604 26.6875V6.5625C0.31604 5.83762 0.915649 5.25 1.65533 5.25H5.67318V21.4375C5.67318 23.1262 7.07502 24.5 8.79818 24.5H18.1732ZM18.1732 5.6875V0H8.79818C8.05851 0 7.4589 0.587617 7.4589 1.3125V21.4375C7.4589 22.1624 8.05851 22.75 8.79818 22.75H23.9768C24.7164 22.75 25.316 22.1624 25.316 21.4375V7H19.5125C18.7759 7 18.1732 6.40938 18.1732 5.6875ZM24.9238 3.9906L21.244 0.384398C20.9928 0.138273 20.6522 1.81998e-06 20.297 0L19.9589 0V5.25H25.316V4.91865C25.316 4.57057 25.1749 4.23674 24.9238 3.9906Z" fill="#503A86"/>
</svg>
